<svg width="20" height="10" viewBox="0 0 20 10" fill="none" xmlns="http://www.w3.org/2000/svg">
<path d="M19.7366 4.6597L15.9402 1.04001C15.7129 0.823409 15.3712 0.758626 15.0743 0.875856C14.7775 0.993087 14.5839 1.26925 14.5838 1.57561V3.86955C14.5838 3.97415 14.4949 4.05894 14.3852 4.05894H2.09152C1.43327 4.05894 0.899658 4.56771 0.899658 5.19531C0.899658 5.8229 1.43327 6.33167 2.09152 6.33167H14.3852C14.4949 6.33167 14.5838 6.41647 14.5838 6.52106V8.815C14.5839 9.12136 14.7775 9.39753 15.0743 9.51476C15.3712 9.63199 15.7129 9.56721 15.9402 9.35061L19.7366 5.73091C20.0468 5.43508 20.0468 4.95553 19.7366 4.6597Z" fill="#FFAC12"/>
</svg>
