<svg width="12" height="8" viewBox="0 0 12 8" fill="none" xmlns="http://www.w3.org/2000/svg">
<path d="M5.76 7.37677C5.44238 7.37717 5.13998 7.23819 4.93008 6.99533L0.220799 1.54176C-0.0887669 1.1659 -0.0471988 0.607003 0.314423 0.282959C0.676045 -0.0410854 1.22545 -0.0117502 1.55184 0.34903L5.66976 5.11798C5.69255 5.14446 5.72543 5.15965 5.76 5.15965C5.79457 5.15965 5.82746 5.14446 5.85024 5.11798L9.96816 0.34903C10.1749 0.0979968 10.4989 -0.0192528 10.8148 0.0426521C11.1306 0.104557 11.3888 0.335904 11.4894 0.647172C11.59 0.958439 11.5172 1.30079 11.2992 1.54176L6.59136 6.99338C6.3811 7.23682 6.07829 7.37646 5.76 7.37677Z" fill="black"/>
</svg>
