<svg width="291" height="34" viewBox="0 0 291 34" fill="none" xmlns="http://www.w3.org/2000/svg">
<path fill-rule="evenodd" clip-rule="evenodd" d="M11.63 6C11.63 2.99557 9.19443 0.559998 6.19 0.559998C3.18557 0.559998 0.75 2.99557 0.75 6V22.45L5.23 25.66V33.48H7.15V25.66L11.63 22.45V6ZM9.71 15.2L7.15 17.76V15.36L9.71 12.8V15.2ZM5.27 15.36L2.71 12.8V15.2L5.27 17.76V15.36ZM9.71 10.08L6.19 13.6L2.67 10V7.6L6.19 11.12L9.71 7.6V10.08ZM9.59 5.09C9.17201 3.55477 7.7811 2.48704 6.19 2.48V2.44C4.58749 2.45191 3.19286 3.5389 2.79 5.09L6.19 8.48L9.59 5.09ZM2.67 21.48V17.88L5.23 20.44V23.3L2.67 21.48ZM7.15 20.44V23.31L9.71 21.47V17.88L7.15 20.44Z" fill="#FFAC12"/>
<path d="M27.632 25V8.2H38.6V10.672H30.704V15.28H37.88V17.68H30.704V22.528H38.6V25H27.632ZM41.171 19.336V16.768H51.227V19.336H41.171ZM61.7713 25.288C60.0753 25.288 58.6193 24.928 57.4033 24.208C56.1873 23.472 55.2513 22.456 54.5953 21.16C53.9393 19.848 53.6113 18.336 53.6113 16.624C53.6113 14.912 53.9393 13.4 54.5953 12.088C55.2513 10.776 56.1873 9.752 57.4033 9.016C58.6193 8.28 60.0753 7.912 61.7713 7.912C63.7873 7.912 65.4353 8.416 66.7153 9.424C68.0113 10.416 68.8193 11.816 69.1393 13.624H65.7552C65.5473 12.712 65.0993 12 64.4113 11.488C63.7393 10.96 62.8433 10.696 61.7233 10.696C60.1713 10.696 58.9553 11.224 58.0753 12.28C57.1953 13.336 56.7553 14.784 56.7553 16.624C56.7553 18.464 57.1953 19.912 58.0753 20.968C58.9553 22.008 60.1713 22.528 61.7233 22.528C62.8433 22.528 63.7393 22.288 64.4113 21.808C65.0993 21.312 65.5473 20.632 65.7552 19.768H69.1393C68.8193 21.496 68.0113 22.848 66.7153 23.824C65.4353 24.8 63.7873 25.288 61.7713 25.288ZM70.5676 25L76.7116 8.2H80.1676L86.3116 25H83.0476L81.7036 21.112H75.1516L73.7836 25H70.5676ZM75.9916 18.712H80.8636L78.4156 11.728L75.9916 18.712ZM88.4758 25V8.2H91.5478L99.4438 20.032V8.2H102.516V25H99.4438L91.5478 13.192V25H88.4758ZM109.685 25V10.672H104.789V8.2H117.677V10.672H112.757V25H109.685ZM119.952 25V8.2H130.92V10.672H123.024V15.28H130.2V17.68H123.024V22.528H130.92V25H119.952ZM133.827 25V8.2H144.795V10.672H136.899V15.28H144.075V17.68H136.899V22.528H144.795V25H133.827ZM147.702 25V8.2H150.774L158.67 20.032V8.2H161.742V25H158.67L150.774 13.192V25H147.702ZM170.718 25V8.2H176.934C178.278 8.2 179.39 8.424 180.27 8.872C181.15 9.32 181.806 9.936 182.238 10.72C182.67 11.504 182.886 12.384 182.886 13.36C182.886 14.288 182.678 15.144 182.262 15.928C181.846 16.696 181.198 17.32 180.318 17.8C179.438 18.264 178.31 18.496 176.934 18.496H173.79V25H170.718ZM173.79 16H176.742C177.814 16 178.582 15.768 179.046 15.304C179.526 14.824 179.766 14.176 179.766 13.36C179.766 12.528 179.526 11.88 179.046 11.416C178.582 10.936 177.814 10.696 176.742 10.696H173.79V16ZM193.168 25.288C191.488 25.288 190.016 24.92 188.752 24.184C187.504 23.448 186.52 22.432 185.8 21.136C185.096 19.824 184.744 18.312 184.744 16.6C184.744 14.888 185.096 13.384 185.8 12.088C186.52 10.776 187.504 9.752 188.752 9.016C190.016 8.28 191.488 7.912 193.168 7.912C194.832 7.912 196.296 8.28 197.56 9.016C198.824 9.752 199.808 10.776 200.512 12.088C201.216 13.384 201.568 14.888 201.568 16.6C201.568 18.312 201.216 19.824 200.512 21.136C199.808 22.432 198.824 23.448 197.56 24.184C196.296 24.92 194.832 25.288 193.168 25.288ZM193.168 22.528C194.768 22.528 196.04 22 196.984 20.944C197.944 19.888 198.424 18.44 198.424 16.6C198.424 14.76 197.944 13.312 196.984 12.256C196.04 11.2 194.768 10.672 193.168 10.672C191.568 10.672 190.288 11.2 189.328 12.256C188.368 13.312 187.888 14.76 187.888 16.6C187.888 18.44 188.368 19.888 189.328 20.944C190.288 22 191.568 22.528 193.168 22.528ZM204.28 25V8.2H207.352V22.6H214.792V25H204.28ZM217.499 25V8.2H220.571V25H217.499ZM223.827 25V8.2H226.899L234.795 20.032V8.2H237.867V25H234.795L226.899 13.192V25H223.827ZM241.124 25V8.2H252.092V10.672H244.196V15.28H251.372V17.68H244.196V22.528H252.092V25H241.124ZM254.999 25V8.2H258.647L263.999 18.856L269.279 8.2H272.927V25H269.855V13.408L265.175 22.6H262.751L258.071 13.408V25H254.999ZM275.107 25L281.251 8.2H284.707L290.851 25H287.587L286.243 21.112H279.691L278.323 25H275.107ZM280.531 18.712H285.403L282.955 11.728L280.531 18.712Z" fill="white"/>
</svg>
